<mxfile host="app.diagrams.net" modified="2020-12-13T12:52:28.811Z" agent="5.0 (Windows)" etag="ZqNyiwNN9JfUaSCUyCKX" version="14.0.1" type="github">
  <diagram id="QasCBjpb0iRLdaL9A-OE" name="Page-1">
    <mxGraphModel dx="569" dy="304" grid="1" gridSize="10" guides="1" tooltips="1" connect="1" arrows="1" fold="1" page="1" pageScale="1" pageWidth="1100" pageHeight="850" math="0" shadow="0">
      <root>
        <mxCell id="0" />
        <mxCell id="1" parent="0" />
        <mxCell id="axl3FP2T3dqZijk1-NpH-7" value="" style="rounded=0;whiteSpace=wrap;html=1;fontSize=14;fillColor=#f5f5f5;strokeColor=#666666;fontColor=#333333;" vertex="1" parent="1">
          <mxGeometry x="180" y="230" width="280" height="60" as="geometry" />
        </mxCell>
        <mxCell id="axl3FP2T3dqZijk1-NpH-2" value="Parent" style="text;html=1;strokeColor=none;fillColor=none;align=center;verticalAlign=middle;whiteSpace=wrap;rounded=0;fontFamily=GT Walsheim Pro;fontSize=14;fontColor=#5C5C5C;" vertex="1" parent="1">
          <mxGeometry x="275" y="160" width="40" height="20" as="geometry" />
        </mxCell>
        <mxCell id="axl3FP2T3dqZijk1-NpH-17" style="edgeStyle=orthogonalEdgeStyle;rounded=0;orthogonalLoop=1;jettySize=auto;html=1;exitX=0.5;exitY=1;exitDx=0;exitDy=0;entryX=0.5;entryY=0;entryDx=0;entryDy=0;fontFamily=GT Walsheim Pro;fontSize=14;strokeColor=#F05A22;" edge="1" parent="1" source="axl3FP2T3dqZijk1-NpH-3" target="axl3FP2T3dqZijk1-NpH-9">
          <mxGeometry relative="1" as="geometry">
            <Array as="points">
              <mxPoint x="320" y="220" />
              <mxPoint x="255" y="220" />
            </Array>
          </mxGeometry>
        </mxCell>
        <mxCell id="axl3FP2T3dqZijk1-NpH-19" style="edgeStyle=orthogonalEdgeStyle;rounded=0;orthogonalLoop=1;jettySize=auto;html=1;exitX=0.5;exitY=1;exitDx=0;exitDy=0;entryX=0.5;entryY=0;entryDx=0;entryDy=0;fontFamily=GT Walsheim Pro;fontSize=14;strokeColor=#F05A22;" edge="1" parent="1" source="axl3FP2T3dqZijk1-NpH-3" target="axl3FP2T3dqZijk1-NpH-10">
          <mxGeometry relative="1" as="geometry">
            <Array as="points">
              <mxPoint x="320" y="220" />
              <mxPoint x="385" y="220" />
            </Array>
          </mxGeometry>
        </mxCell>
        <mxCell id="axl3FP2T3dqZijk1-NpH-3" value="Languages" style="rounded=1;whiteSpace=wrap;html=1;fontFamily=GT Walsheim Pro;fillColor=#ffe6cc;fontSize=14;strokeColor=#F05A22;" vertex="1" parent="1">
          <mxGeometry x="275" y="180" width="90" height="25" as="geometry" />
        </mxCell>
        <mxCell id="axl3FP2T3dqZijk1-NpH-8" value="Siblings" style="text;html=1;strokeColor=none;fillColor=none;align=center;verticalAlign=middle;whiteSpace=wrap;rounded=0;fontFamily=GT Walsheim Pro;fontSize=14;fontColor=#5C5C5C;" vertex="1" parent="1">
          <mxGeometry x="180" y="210" width="50" height="20" as="geometry" />
        </mxCell>
        <mxCell id="axl3FP2T3dqZijk1-NpH-9" value="French" style="rounded=1;whiteSpace=wrap;html=1;fontFamily=GT Walsheim Pro;fillColor=#ffe6cc;fontSize=14;strokeColor=#F05A22;" vertex="1" parent="1">
          <mxGeometry x="195" y="260" width="120" height="25" as="geometry" />
        </mxCell>
        <mxCell id="axl3FP2T3dqZijk1-NpH-10" value="Japanese" style="rounded=1;whiteSpace=wrap;html=1;fontFamily=GT Walsheim Pro;fillColor=#ffe6cc;fontSize=14;strokeColor=#F05A22;" vertex="1" parent="1">
          <mxGeometry x="325" y="260" width="120" height="25" as="geometry" />
        </mxCell>
        <mxCell id="axl3FP2T3dqZijk1-NpH-11" value="Child" style="text;html=1;strokeColor=none;fillColor=none;align=center;verticalAlign=middle;whiteSpace=wrap;rounded=0;fontFamily=GT Walsheim Pro;fontSize=14;fontColor=#5C5C5C;" vertex="1" parent="1">
          <mxGeometry x="195" y="240" width="35" height="20" as="geometry" />
        </mxCell>
        <mxCell id="axl3FP2T3dqZijk1-NpH-13" value="Child" style="text;html=1;strokeColor=none;fillColor=none;align=center;verticalAlign=middle;whiteSpace=wrap;rounded=0;fontFamily=GT Walsheim Pro;fontSize=14;fontColor=#5C5C5C;" vertex="1" parent="1">
          <mxGeometry x="410" y="240" width="35" height="20" as="geometry" />
        </mxCell>
      </root>
    </mxGraphModel>
  </diagram>
</mxfile>
